<svg width="283" height="283" viewBox="0 0 283 283" fill="none" xmlns="http://www.w3.org/2000/svg">
<path d="M167.227 128.636C174.332 128.636 180.091 122.877 180.091 115.773C180.091 108.668 174.332 102.909 167.227 102.909C160.123 102.909 154.364 108.668 154.364 115.773C154.364 122.877 160.123 128.636 167.227 128.636Z" fill="#25FEFD"/>
<path d="M218.682 77.1818C225.786 77.1818 231.545 71.4226 231.545 64.3182C231.545 57.2138 225.786 51.4545 218.682 51.4545C211.577 51.4545 205.818 57.2138 205.818 64.3182C205.818 71.4226 211.577 77.1818 218.682 77.1818Z" fill="#25FEFD"/>
<path d="M167.227 77.1818C174.332 77.1818 180.091 71.4226 180.091 64.3182C180.091 57.2138 174.332 51.4545 167.227 51.4545C160.123 51.4545 154.364 57.2138 154.364 64.3182C154.364 71.4226 160.123 77.1818 167.227 77.1818Z" fill="#25FEFD"/>
<path d="M115.773 77.1818C122.877 77.1818 128.636 71.4226 128.636 64.3182C128.636 57.2138 122.877 51.4545 115.773 51.4545C108.668 51.4545 102.909 57.2138 102.909 64.3182C102.909 71.4226 108.668 77.1818 115.773 77.1818Z" fill="#25FEFD"/>
<path d="M64.3182 77.1818C71.4226 77.1818 77.1818 71.4226 77.1818 64.3182C77.1818 57.2138 71.4226 51.4545 64.3182 51.4545C57.2138 51.4545 51.4546 57.2138 51.4546 64.3182C51.4546 71.4226 57.2138 77.1818 64.3182 77.1818Z" fill="#25FEFD"/>
<path d="M64.3182 128.636C71.4226 128.636 77.1818 122.877 77.1818 115.773C77.1818 108.668 71.4226 102.909 64.3182 102.909C57.2138 102.909 51.4546 108.668 51.4546 115.773C51.4546 122.877 57.2138 128.636 64.3182 128.636Z" fill="#25FEFD"/>
<path d="M64.3182 154.364C60.9065 154.364 57.6346 155.719 55.2222 158.131C52.8098 160.544 51.4546 163.816 51.4546 167.227V218.682C51.4546 222.093 52.8098 225.365 55.2222 227.778C57.6346 230.19 60.9065 231.545 64.3182 231.545C67.7298 231.545 71.0018 230.19 73.4142 227.778C75.8266 225.365 77.1818 222.093 77.1818 218.682V167.227C77.1818 163.816 75.8266 160.544 73.4142 158.131C71.0018 155.719 67.7298 154.364 64.3182 154.364V154.364Z" fill="#A2A2A2"/>
<path d="M167.227 154.364C163.816 154.364 160.544 155.719 158.131 158.131C155.719 160.544 154.364 163.816 154.364 167.227V218.682C154.364 222.093 155.719 225.365 158.131 227.778C160.544 230.19 163.816 231.545 167.227 231.545C170.639 231.545 173.911 230.19 176.323 227.778C178.736 225.365 180.091 222.093 180.091 218.682V167.227C180.091 163.816 178.736 160.544 176.323 158.131C173.911 155.719 170.639 154.364 167.227 154.364Z" fill="#A2A2A2"/>
<path d="M115.773 102.909C112.361 102.909 109.089 104.264 106.677 106.677C104.264 109.089 102.909 112.361 102.909 115.773V218.682C102.909 222.093 104.264 225.365 106.677 227.778C109.089 230.19 112.361 231.545 115.773 231.545C119.184 231.545 122.456 230.19 124.869 227.778C127.281 225.365 128.636 222.093 128.636 218.682V115.773C128.636 112.361 127.281 109.089 124.869 106.677C122.456 104.264 119.184 102.909 115.773 102.909Z" fill="#A2A2A2"/>
<path d="M218.682 102.909C215.27 102.909 211.998 104.264 209.586 106.677C207.173 109.089 205.818 112.361 205.818 115.773V218.682C205.818 222.093 207.173 225.365 209.586 227.778C211.998 230.19 215.27 231.545 218.682 231.545C222.093 231.545 225.365 230.19 227.778 227.778C230.19 225.365 231.545 222.093 231.545 218.682V115.773C231.545 112.361 230.19 109.089 227.778 106.677C225.365 104.264 222.093 102.909 218.682 102.909Z" fill="#A2A2A2"/>
</svg>
