<svg width="129" height="129" viewBox="0 0 129 129" fill="none" xmlns="http://www.w3.org/2000/svg">
<path d="M64.8064 103.432V128.137C106.68 128.137 139.284 87.684 125.586 43.805C119.6 24.6296 104.363 9.39293 85.1878 3.40703C41.3088 -10.2908 0.85498 22.3133 0.85498 64.1871H25.6166C25.6203 64.1871 25.6232 64.1806 25.6232 64.1806C25.6268 37.9018 51.6336 17.5849 79.262 27.6103C89.4977 31.3248 97.6621 39.4878 101.379 49.7227C111.406 77.3349 91.1194 103.332 64.863 103.369V78.7435C64.863 78.7435 64.8608 78.7421 64.8586 78.7421H40.1731C40.1709 78.7421 40.1687 78.7457 40.1687 78.7457V103.432H64.8064ZM40.1644 122.406H21.1972L21.1928 122.401V103.432H40.1687V122.401C40.1687 122.401 40.1666 122.406 40.1644 122.406ZM21.2059 103.432H5.30561C5.29908 103.432 5.29401 103.428 5.29401 103.428V87.5346C5.29401 87.5346 5.29908 87.523 5.30561 87.523H21.1943C21.2008 87.523 21.2059 87.528 21.2059 87.528V103.432Z" fill="#0080FF"/>
</svg>
