<?xml version="1.0" standalone="no"?>
<!DOCTYPE svg PUBLIC "-//W3C//DTD SVG 20010904//EN"
 "http://www.w3.org/TR/2001/REC-SVG-20010904/DTD/svg10.dtd">
<svg version="1.0" xmlns="http://www.w3.org/2000/svg"
 width="259.000000pt" height="259.000000pt" viewBox="0 0 259.000000 259.000000"
 preserveAspectRatio="xMidYMid meet">
<metadata>
Created by potrace 1.16, written by Peter Selinger 2001-2019
</metadata>
<g transform="translate(0.000000,259.000000) scale(0.100000,-0.100000)"
fill="#000000" stroke="none">
<path d="M1710 2171 c26 -50 2 -113 -91 -237 -44 -59 -82 -117 -85 -130 -10
-40 -1 -59 29 -58 15 0 78 1 141 2 l113 2 6 41 c8 58 48 110 149 190 144 116
151 138 50 168 -81 24 -186 41 -265 41 -54 0 -57 -1 -47 -19z"/>
<path d="M1551 2159 c-40 -11 -109 -36 -152 -56 -75 -34 -77 -36 -66 -60 15
-34 -4 -99 -56 -187 -55 -94 -69 -125 -62 -148 7 -20 36 -23 81 -8 16 5 64 16
108 23 l78 13 3 39 c3 50 25 100 67 156 101 133 121 175 105 222 -11 32 -10
32 -106 6z"/>
<path d="M2140 2085 c0 -23 -65 -90 -156 -161 -84 -65 -111 -96 -114 -130 -5
-41 -1 -44 58 -45 31 0 83 -4 115 -8 54 -7 61 -5 86 18 16 15 76 44 134 65 59
21 116 49 127 61 l21 22 -61 56 c-53 49 -183 137 -203 137 -4 0 -7 -7 -7 -15z"/>
<path d="M1180 1962 c-87 -70 -190 -189 -248 -285 -40 -66 -34 -90 28 -107 53
-14 83 -5 162 48 53 36 65 48 57 59 -23 27 -4 107 46 193 44 78 69 160 48 160
-5 0 -47 -31 -93 -68z"/>
<path d="M2415 1835 c-16 -14 -73 -38 -125 -54 -52 -17 -104 -37 -115 -45 -18
-13 -17 -15 25 -26 56 -15 148 -61 187 -94 34 -29 95 -42 148 -32 58 11 59 35
6 135 -46 85 -81 140 -91 140 -3 0 -18 -11 -35 -24z"/>
<path d="M1783 1043 c-30 -6 -71 -49 -78 -83 -13 -60 30 -68 49 -10 14 45 53
61 90 36 14 -9 26 -25 26 -35 0 -22 25 -45 40 -36 15 10 12 58 -6 84 -15 21
-73 53 -91 50 -4 -1 -18 -4 -30 -6z"/>
<path d="M1355 930 c-9 -14 3 -30 23 -30 10 0 31 -25 52 -61 87 -152 264 -243
434 -224 78 9 123 27 235 98 121 76 164 95 237 103 55 6 84 22 84 47 0 15
-134 -1 -190 -22 -28 -11 -94 -47 -147 -82 -104 -67 -188 -99 -261 -99 -114 1
-219 48 -297 132 -61 66 -75 96 -51 110 9 5 16 16 16 23 0 12 -15 15 -64 15
-36 0 -68 -4 -71 -10z"/>
</g>
</svg>
