<svg width="262" height="206" viewBox="0 0 262 206" fill="none" xmlns="http://www.w3.org/2000/svg">
<path d="M109.3 2.10001C109.5 2.60001 110.2 3 110.8 3C112.5 3 118.2 8.4 123.9 15.5C126.6 18.8 129.3 21.9 129.9 22.5C130.5 23 135 28.2 140 34C144.9 39.8 149.2 44.7 149.5 45C149.8 45.3 154.1 50.2 159 56C164 61.8 168.8 67.3 169.7 68.4C171.3 70.2 171.5 70.1 174.7 66.4C176.5 64.4 178.5 62.2 179 61.6C179.6 61 184.1 55.8 189 50C199.4 37.9 201.4 35.6 205 31.5C206.4 29.8 209.5 26.3 211.8 23.6C225.6 7.40001 228.8 4.09999 230.8 3.39999C232 2.99999 233.3 2.29998 233.6 1.69998C234.6 0.299982 248.8 0.399994 249.3 1.89999C249.5 2.49999 250.2 3 250.8 3C252.4 3 257.6 7.8 260 11.5C261.4 13.7 262 16.3 262 21C262 28.2 260.4 32.4 255.6 37.7C254.1 39.5 249.9 44.2 246.4 48.2C242.9 52.1 239.5 55.8 239 56.4C238.4 57 236.7 59.1 235.1 61C233.5 62.9 229.9 67.2 227 70.5C206.7 93.7 199.5 102.1 199.5 102.5C199.5 102.8 201.6 105.4 204.3 108.3C206.9 111.2 211.5 116.5 214.5 120C217.5 123.6 222 128.7 224.5 131.5C227 134.3 231.3 139.3 234 142.5C236.8 145.8 241 150.7 243.5 153.5C261.2 173.5 261.9 174.7 261.9 183C261.9 188.3 261.5 190.2 259.3 193.5C256.2 198.3 253.7 200.5 248.9 202.5C240.1 206.2 231.5 203.3 223.3 193.9C220.2 190.4 214 183.2 209.5 178C204.9 172.8 199.8 166.9 198.1 165C196.4 163.1 192.1 158.1 188.5 154C184.9 149.9 180.8 145.2 179.4 143.5C177.9 141.9 175.6 139.1 174.1 137.5L171.5 134.5L168.3 138.1C166.5 140.1 158 149.7 149.5 159.5C141 169.3 133.6 177.8 133 178.4C132.5 179 128 184.1 123.1 189.7C113.6 200.8 108.7 204 101.5 204C87.1 204 76.6 188.6 82.1 175.4C83 173.2 86.3 168.6 89.4 165C92.5 161.4 96.1 157.2 97.5 155.6C98.9 154 100.5 152.2 101 151.6C101.6 151 104.9 147.1 108.5 143C115.8 134.4 139.1 107.4 141.7 104.6C143.3 102.8 143.3 102.6 141.5 100.1C140.5 98.7 138.4 96.1 136.8 94.5C135.3 92.8 131.3 88.3 128 84.5C124.7 80.6 118.6 73.7 114.5 69C102.8 55.6 95.2 47 92.3 43.6C90.9 41.9 88.5 39.1 87 37.5C80.5 30.1 78.7 20.8 82.2 13.2C84 9.19998 90.2 3 92.3 3C92.9 3 93.5 2.60001 93.5 2.10001C93.5 0.100006 108.6 0.100006 109.3 2.10001ZM29 4.5C33.4 6.7 38.3 11.6 40.1 15.8C41.3 18.7 41.5 32.3 41.5 102.9C41.5 148.9 41 188.2 40.6 190.4C38.6 198.7 29.4 206 20.8 206C12.7 206 5.19995 201.2 1.69995 194C0.0999511 190.8 0 182.9 0 103.5C0 18.2 0 16.4 2 13.5C8.1 4.3 20 0.3 29 4.5Z" fill="black"/>
</svg>
