<?xml version="1.0" standalone="no"?>
<!DOCTYPE svg PUBLIC "-//W3C//DTD SVG 20010904//EN"
 "http://www.w3.org/TR/2001/REC-SVG-20010904/DTD/svg10.dtd">
<svg version="1.0" xmlns="http://www.w3.org/2000/svg"
 width="508.000000pt" height="538.000000pt" viewBox="0 0 508.000000 538.000000"
 preserveAspectRatio="xMidYMid meet">
<metadata>
Created by potrace 1.16, written by Peter Selinger 2001-2019
</metadata>
<g transform="translate(0.000000,538.000000) scale(0.100000,-0.100000)"
fill="#000000" stroke="none">
<path d="M2148 4807 c-191 -95 -347 -174 -348 -177 0 -3 166 -89 368 -191
l368 -186 333 178 c184 97 338 182 344 188 6 6 -105 67 -342 185 -193 97 -357
176 -363 175 -7 0 -169 -78 -360 -172z"/>
<path d="M1042 4256 c-221 -110 -402 -203 -402 -206 0 -3 170 -90 379 -194
l378 -189 94 48 c266 137 685 357 691 363 4 4 -160 91 -365 193 l-372 186
-403 -201z"/>
<path d="M3222 4268 c-188 -100 -339 -185 -335 -188 4 -4 179 -94 389 -199
l381 -193 358 180 359 179 -394 199 c-217 109 -399 200 -405 201 -5 1 -164
-79 -353 -179z"/>
<path d="M2155 3714 c-203 -107 -381 -201 -395 -209 -23 -12 -5 -22 358 -204
l382 -191 407 204 408 203 -392 197 c-216 108 -394 196 -395 195 -2 0 -169
-88 -373 -195z"/>
<path d="M420 2696 l0 -1124 263 -140 262 -141 5 581 5 580 324 -623 c503
-968 459 -896 596 -984 59 -38 369 -227 478 -292 4 -2 7 511 7 1141 l0 1146
-290 145 c-159 80 -292 145 -295 145 -3 0 -5 -282 -5 -627 0 -356 -4 -623 -9
-617 -4 5 -180 376 -391 824 -235 502 -391 823 -406 835 -27 23 -515 275 -532
275 -9 0 -12 -281 -12 -1124z"/>
<path d="M4203 3607 l-363 -182 0 -488 0 -488 370 188 370 188 0 483 c0 265
-3 482 -7 481 -5 0 -171 -82 -370 -182z"/>
<path d="M3088 3054 l-428 -214 0 -485 c0 -267 2 -485 4 -485 1 0 199 97 440
216 l436 215 0 228 c0 295 -12 741 -19 740 -3 0 -198 -97 -433 -215z"/>
<path d="M4203 2293 l-363 -184 0 -490 c0 -269 2 -489 5 -489 3 0 169 82 370
182 l365 183 0 492 c0 271 -3 492 -7 492 -5 -1 -171 -84 -370 -186z"/>
<path d="M3098 1739 l-438 -219 0 -490 c0 -270 2 -490 5 -490 3 0 201 98 440
217 l435 218 0 492 c0 271 -1 493 -2 492 -2 0 -200 -99 -440 -220z"/>
</g>
</svg>
