<?xml version="1.0" standalone="no"?>
<!DOCTYPE svg PUBLIC "-//W3C//DTD SVG 20010904//EN"
 "http://www.w3.org/TR/2001/REC-SVG-20010904/DTD/svg10.dtd">
<svg version="1.0" xmlns="http://www.w3.org/2000/svg"
 width="898.000000pt" height="1197.000000pt" viewBox="0 0 898.000000 1197.000000"
 preserveAspectRatio="xMidYMid meet">
<metadata>
Created by potrace 1.16, written by Peter Selinger 2001-2019
</metadata>
<g transform="translate(0.000000,1197.000000) scale(0.100000,-0.100000)"
fill="#000000" stroke="none">
<path d="M6410 7140 l0 -3550 520 0 520 0 0 3550 0 3550 -520 0 -520 0 0
-3550z"/>
<path d="M3180 9065 l0 -1075 520 0 520 0 0 1075 0 1075 -520 0 -520 0 0
-1075z"/>
<path d="M1530 4830 l0 -3550 515 0 515 0 0 3550 0 3550 -515 0 -515 0 0
-3550z"/>
<path d="M4800 7310 l0 -1070 520 0 520 0 0 1070 0 1070 -520 0 -520 0 0
-1070z"/>
<path d="M3180 4680 l0 -1070 520 0 520 0 0 1070 0 1070 -520 0 -520 0 0
-1070z"/>
<path d="M4800 5110 l0 -510 518 2 517 3 3 508 2 507 -520 0 -520 0 0 -510z"/>
<path d="M4800 2920 l0 -1070 520 0 520 0 0 1070 0 1070 -520 0 -520 0 0
-1070z"/>
</g>
</svg>
