<?xml version="1.0" standalone="no"?>
<!DOCTYPE svg PUBLIC "-//W3C//DTD SVG 20010904//EN" "http://www.w3.org/TR/2001/REC-SVG-20010904/DTD/svg10.dtd">
<svg version="1.0" xmlns="http://www.w3.org/2000/svg" width="800.000000pt" height="800.000000pt"
  viewBox="0 0 800.000000 800.000000" preserveAspectRatio="xMidYMid meet">
  <metadata>
    Created by potrace 1.16, written by Peter Selinger 2001-2019
  </metadata>
  <g transform="translate(0.000000,800.000000) scale(0.100000,-0.100000)" fill="#000000" stroke="none">
    <path d="M1614 6884 c4 -9 378 -663 833 -1452 815 -1416 826 -1435 810 -1461
-161 -273 -1647 -2856 -1647 -2862 0 -5 314 -9 720 -9 l720 0 24 38 c13 20
223 381 466 802 243 421 448 771 455 778 10 11 99 -138 465 -775 249 -433 462
-800 472 -815 l19 -28 725 0 c398 0 724 2 724 5 0 5 -1070 1858 -2600 4505
-179 311 -420 728 -535 928 l-209 362 -724 0 c-668 0 -724 -1 -718 -16z" />
    <path d="M4860 6738 c-133 -274 -220 -580 -251 -882 -15 -149 -6 -483 15 -619
34 -207 81 -386 150 -562 48 -122 142 -315 154 -315 4 0 77 123 164 273 86
149 411 715 723 1257 312 541 569 990 572 997 4 11 -130 13 -721 13 l-726 0
-80 -162z" />
  </g>
</svg>